<mxfile host="app.diagrams.net" modified="2020-07-31T14:58:16.305Z" agent="5.0 (Windows NT 6.1; Win64; x64) AppleWebKit/537.36 (KHTML, like Gecko) Chrome/84.0.4147.105 Safari/537.36" etag="0QZE1bYzgCs_7UA5GfK0" version="13.5.7" type="github">
  <diagram id="YXi4pEOcDcFyX6jo3Zid" name="Page-1">
    <mxGraphModel dx="1210" dy="602" grid="0" gridSize="10" guides="1" tooltips="1" connect="1" arrows="1" fold="1" page="1" pageScale="1" pageWidth="850" pageHeight="1100" math="0" shadow="0">
      <root>
        <mxCell id="0" />
        <mxCell id="1" parent="0" />
        <mxCell id="aRYz8n5IBiAh0wZ27M9G-1" value="Project Conception/Initiation" style="whiteSpace=wrap;align=center;verticalAlign=middle;fontStyle=1;strokeWidth=3;fillColor=#ffe6cc;strokeColor=#d79b00;shadow=0;sketch=0;rounded=1;" vertex="1" parent="1">
          <mxGeometry x="340" y="40" width="130" height="41" as="geometry" />
        </mxCell>
        <mxCell id="aRYz8n5IBiAh0wZ27M9G-2" value="" style="endArrow=classic;html=1;exitX=0.5;exitY=1;exitDx=0;exitDy=0;" edge="1" parent="1" source="aRYz8n5IBiAh0wZ27M9G-1">
          <mxGeometry width="50" height="50" relative="1" as="geometry">
            <mxPoint x="400" y="330" as="sourcePoint" />
            <mxPoint x="405" y="150.0000000000001" as="targetPoint" />
          </mxGeometry>
        </mxCell>
        <mxCell id="aRYz8n5IBiAh0wZ27M9G-3" value="Definition" style="whiteSpace=wrap;align=center;verticalAlign=middle;fontStyle=1;strokeWidth=3;fillColor=#ffe6cc;strokeColor=#d79b00;shadow=0;sketch=0;rounded=1;" vertex="1" parent="1">
          <mxGeometry x="340" y="152" width="130" height="35" as="geometry" />
        </mxCell>
        <mxCell id="aRYz8n5IBiAh0wZ27M9G-4" value="" style="endArrow=none;html=1;" edge="1" parent="1">
          <mxGeometry width="50" height="50" relative="1" as="geometry">
            <mxPoint x="154" y="211" as="sourcePoint" />
            <mxPoint x="670" y="211" as="targetPoint" />
          </mxGeometry>
        </mxCell>
        <mxCell id="aRYz8n5IBiAh0wZ27M9G-5" value="" style="endArrow=none;html=1;" edge="1" parent="1">
          <mxGeometry width="50" height="50" relative="1" as="geometry">
            <mxPoint x="405" y="211" as="sourcePoint" />
            <mxPoint x="404.7600000000002" y="187" as="targetPoint" />
          </mxGeometry>
        </mxCell>
        <mxCell id="aRYz8n5IBiAh0wZ27M9G-6" value="Planning" style="whiteSpace=wrap;align=center;verticalAlign=middle;fontStyle=1;strokeWidth=3;fillColor=#ffe6cc;strokeColor=#d79b00;shadow=0;sketch=0;rounded=1;" vertex="1" parent="1">
          <mxGeometry x="104" y="278" width="100" height="33" as="geometry" />
        </mxCell>
        <mxCell id="aRYz8n5IBiAh0wZ27M9G-7" value="" style="endArrow=classic;html=1;" edge="1" parent="1">
          <mxGeometry width="50" height="50" relative="1" as="geometry">
            <mxPoint x="155" y="211" as="sourcePoint" />
            <mxPoint x="155" y="277" as="targetPoint" />
          </mxGeometry>
        </mxCell>
        <mxCell id="aRYz8n5IBiAh0wZ27M9G-8" value="" style="endArrow=classic;html=1;entryX=0.496;entryY=-0.025;entryDx=0;entryDy=0;entryPerimeter=0;" edge="1" parent="1" target="aRYz8n5IBiAh0wZ27M9G-9">
          <mxGeometry width="50" height="50" relative="1" as="geometry">
            <mxPoint x="326" y="210" as="sourcePoint" />
            <mxPoint x="326" y="272" as="targetPoint" />
            <Array as="points" />
          </mxGeometry>
        </mxCell>
        <mxCell id="aRYz8n5IBiAh0wZ27M9G-9" value="Scope" style="whiteSpace=wrap;align=center;verticalAlign=middle;fontStyle=1;strokeWidth=3;fillColor=#ffe6cc;strokeColor=#d79b00;shadow=0;sketch=0;rounded=1;" vertex="1" parent="1">
          <mxGeometry x="276" y="278" width="100" height="33" as="geometry" />
        </mxCell>
        <mxCell id="aRYz8n5IBiAh0wZ27M9G-10" value="" style="endArrow=classic;html=1;entryX=0.496;entryY=-0.025;entryDx=0;entryDy=0;entryPerimeter=0;" edge="1" parent="1" target="aRYz8n5IBiAh0wZ27M9G-11">
          <mxGeometry width="50" height="50" relative="1" as="geometry">
            <mxPoint x="498" y="212" as="sourcePoint" />
            <mxPoint x="498" y="274" as="targetPoint" />
            <Array as="points" />
          </mxGeometry>
        </mxCell>
        <mxCell id="aRYz8n5IBiAh0wZ27M9G-11" value="Resources" style="whiteSpace=wrap;align=center;verticalAlign=middle;fontStyle=1;strokeWidth=3;fillColor=#ffe6cc;strokeColor=#d79b00;shadow=0;sketch=0;rounded=1;" vertex="1" parent="1">
          <mxGeometry x="448" y="280" width="100" height="33" as="geometry" />
        </mxCell>
        <mxCell id="aRYz8n5IBiAh0wZ27M9G-12" value="" style="endArrow=classic;html=1;entryX=0.496;entryY=-0.025;entryDx=0;entryDy=0;entryPerimeter=0;" edge="1" parent="1" target="aRYz8n5IBiAh0wZ27M9G-13">
          <mxGeometry width="50" height="50" relative="1" as="geometry">
            <mxPoint x="670" y="211" as="sourcePoint" />
            <mxPoint x="670" y="274" as="targetPoint" />
            <Array as="points" />
          </mxGeometry>
        </mxCell>
        <mxCell id="aRYz8n5IBiAh0wZ27M9G-13" value="Schedule" style="whiteSpace=wrap;align=center;verticalAlign=middle;fontStyle=1;strokeWidth=3;fillColor=#ffe6cc;strokeColor=#d79b00;shadow=0;sketch=0;rounded=1;" vertex="1" parent="1">
          <mxGeometry x="620" y="280" width="100" height="33" as="geometry" />
        </mxCell>
        <mxCell id="aRYz8n5IBiAh0wZ27M9G-14" value="" style="endArrow=none;html=1;" edge="1" parent="1">
          <mxGeometry width="50" height="50" relative="1" as="geometry">
            <mxPoint x="155" y="357" as="sourcePoint" />
            <mxPoint x="671" y="357" as="targetPoint" />
          </mxGeometry>
        </mxCell>
        <mxCell id="aRYz8n5IBiAh0wZ27M9G-15" value="" style="endArrow=none;html=1;" edge="1" parent="1">
          <mxGeometry width="50" height="50" relative="1" as="geometry">
            <mxPoint x="156.00000000000023" y="357" as="sourcePoint" />
            <mxPoint x="156.00000000000023" y="313" as="targetPoint" />
          </mxGeometry>
        </mxCell>
        <mxCell id="aRYz8n5IBiAh0wZ27M9G-16" value="" style="endArrow=none;html=1;" edge="1" parent="1">
          <mxGeometry width="50" height="50" relative="1" as="geometry">
            <mxPoint x="669.71" y="357" as="sourcePoint" />
            <mxPoint x="669.71" y="313" as="targetPoint" />
          </mxGeometry>
        </mxCell>
        <mxCell id="aRYz8n5IBiAh0wZ27M9G-17" value="" style="endArrow=classic;html=1;" edge="1" parent="1">
          <mxGeometry width="50" height="50" relative="1" as="geometry">
            <mxPoint x="325.94000000000005" y="357" as="sourcePoint" />
            <mxPoint x="325.94000000000005" y="423" as="targetPoint" />
          </mxGeometry>
        </mxCell>
        <mxCell id="aRYz8n5IBiAh0wZ27M9G-18" value="" style="endArrow=classic;html=1;" edge="1" parent="1">
          <mxGeometry width="50" height="50" relative="1" as="geometry">
            <mxPoint x="514" y="357" as="sourcePoint" />
            <mxPoint x="514" y="423" as="targetPoint" />
          </mxGeometry>
        </mxCell>
        <mxCell id="aRYz8n5IBiAh0wZ27M9G-19" value="Approval" style="whiteSpace=wrap;align=center;verticalAlign=middle;fontStyle=1;strokeWidth=3;fillColor=#ffe6cc;strokeColor=#d79b00;shadow=0;sketch=0;rounded=1;" vertex="1" parent="1">
          <mxGeometry x="276" y="425" width="100" height="33" as="geometry" />
        </mxCell>
        <mxCell id="aRYz8n5IBiAh0wZ27M9G-20" style="edgeStyle=orthogonalEdgeStyle;rounded=0;orthogonalLoop=1;jettySize=auto;html=1;endArrow=blockThin;endFill=1;" edge="1" parent="1" source="aRYz8n5IBiAh0wZ27M9G-21">
          <mxGeometry relative="1" as="geometry">
            <mxPoint x="475" y="171" as="targetPoint" />
            <Array as="points">
              <mxPoint x="787" y="442" />
              <mxPoint x="787" y="171" />
            </Array>
          </mxGeometry>
        </mxCell>
        <mxCell id="aRYz8n5IBiAh0wZ27M9G-21" value="Changes" style="whiteSpace=wrap;align=center;verticalAlign=middle;fontStyle=1;strokeWidth=3;fillColor=#ffe6cc;strokeColor=#d79b00;shadow=0;sketch=0;rounded=1;" vertex="1" parent="1">
          <mxGeometry x="465" y="425" width="100" height="33" as="geometry" />
        </mxCell>
        <mxCell id="aRYz8n5IBiAh0wZ27M9G-22" value="" style="endArrow=classic;html=1;" edge="1" parent="1">
          <mxGeometry width="50" height="50" relative="1" as="geometry">
            <mxPoint x="325.94000000000005" y="458" as="sourcePoint" />
            <mxPoint x="326" y="503" as="targetPoint" />
          </mxGeometry>
        </mxCell>
        <mxCell id="aRYz8n5IBiAh0wZ27M9G-23" value="Write Logic" style="whiteSpace=wrap;align=center;verticalAlign=middle;fontStyle=1;strokeWidth=3;fillColor=#ffe6cc;strokeColor=#d79b00;shadow=0;sketch=0;rounded=1;" vertex="1" parent="1">
          <mxGeometry x="276" y="505" width="100" height="33" as="geometry" />
        </mxCell>
        <mxCell id="aRYz8n5IBiAh0wZ27M9G-24" value="" style="endArrow=classic;html=1;entryX=-0.011;entryY=0.475;entryDx=0;entryDy=0;entryPerimeter=0;" edge="1" parent="1" target="aRYz8n5IBiAh0wZ27M9G-26">
          <mxGeometry width="50" height="50" relative="1" as="geometry">
            <mxPoint x="376" y="521.0700000000002" as="sourcePoint" />
            <mxPoint x="461" y="521" as="targetPoint" />
          </mxGeometry>
        </mxCell>
        <mxCell id="aRYz8n5IBiAh0wZ27M9G-25" value="" style="edgeStyle=orthogonalEdgeStyle;rounded=0;orthogonalLoop=1;jettySize=auto;html=1;" edge="1" parent="1" source="aRYz8n5IBiAh0wZ27M9G-26" target="aRYz8n5IBiAh0wZ27M9G-27">
          <mxGeometry relative="1" as="geometry" />
        </mxCell>
        <mxCell id="aRYz8n5IBiAh0wZ27M9G-26" value="Make Modules" style="whiteSpace=wrap;align=center;verticalAlign=middle;fontStyle=1;strokeWidth=3;fillColor=#ffe6cc;strokeColor=#d79b00;shadow=0;sketch=0;rounded=1;" vertex="1" parent="1">
          <mxGeometry x="465" y="505" width="101" height="33" as="geometry" />
        </mxCell>
        <mxCell id="aRYz8n5IBiAh0wZ27M9G-27" value="Performance &amp; Control of Algorithm" style="whiteSpace=wrap;align=center;verticalAlign=middle;fontStyle=1;strokeWidth=3;fillColor=#ffe6cc;strokeColor=#d79b00;shadow=0;sketch=0;rounded=1;" vertex="1" parent="1">
          <mxGeometry x="620" y="498.75" width="101" height="45.5" as="geometry" />
        </mxCell>
        <mxCell id="aRYz8n5IBiAh0wZ27M9G-28" value="" style="endArrow=classic;html=1;" edge="1" parent="1">
          <mxGeometry width="50" height="50" relative="1" as="geometry">
            <mxPoint x="565" y="521.4000000000001" as="sourcePoint" />
            <mxPoint x="621" y="521" as="targetPoint" />
          </mxGeometry>
        </mxCell>
        <mxCell id="aRYz8n5IBiAh0wZ27M9G-29" value="" style="endArrow=classic;html=1;" edge="1" parent="1">
          <mxGeometry width="50" height="50" relative="1" as="geometry">
            <mxPoint x="669.6599999999999" y="544.25" as="sourcePoint" />
            <mxPoint x="669.6599999999999" y="610.25" as="targetPoint" />
          </mxGeometry>
        </mxCell>
        <mxCell id="aRYz8n5IBiAh0wZ27M9G-30" value="Monitor Process" style="whiteSpace=wrap;align=center;verticalAlign=middle;fontStyle=1;strokeWidth=3;fillColor=#ffe6cc;strokeColor=#d79b00;shadow=0;sketch=0;rounded=1;" vertex="1" parent="1">
          <mxGeometry x="620" y="613" width="115" height="33" as="geometry" />
        </mxCell>
        <mxCell id="aRYz8n5IBiAh0wZ27M9G-31" value="" style="endArrow=classic;html=1;entryX=0;entryY=0.5;entryDx=0;entryDy=0;" edge="1" parent="1" target="aRYz8n5IBiAh0wZ27M9G-32">
          <mxGeometry width="50" height="50" relative="1" as="geometry">
            <mxPoint x="721" y="521.4000000000001" as="sourcePoint" />
            <mxPoint x="737" y="522" as="targetPoint" />
          </mxGeometry>
        </mxCell>
        <mxCell id="aRYz8n5IBiAh0wZ27M9G-32" value="If Change" style="ellipse;whiteSpace=wrap;html=1;align=center;fontStyle=1;fillColor=#f8cecc;strokeColor=#b85450;" vertex="1" parent="1">
          <mxGeometry x="739" y="501.5" width="100" height="40" as="geometry" />
        </mxCell>
        <mxCell id="aRYz8n5IBiAh0wZ27M9G-33" value="" style="endArrow=none;html=1;entryX=0.486;entryY=0.006;entryDx=0;entryDy=0;entryPerimeter=0;endFill=0;startArrow=classic;startFill=1;" edge="1" parent="1" target="aRYz8n5IBiAh0wZ27M9G-32">
          <mxGeometry width="50" height="50" relative="1" as="geometry">
            <mxPoint x="788" y="440" as="sourcePoint" />
            <mxPoint x="787" y="499" as="targetPoint" />
            <Array as="points">
              <mxPoint x="820" y="468" />
              <mxPoint x="794" y="479" />
              <mxPoint x="788" y="487" />
            </Array>
          </mxGeometry>
        </mxCell>
        <mxCell id="aRYz8n5IBiAh0wZ27M9G-34" value="" style="endArrow=none;html=1;entryX=-0.011;entryY=0.475;entryDx=0;entryDy=0;entryPerimeter=0;endFill=0;startArrow=classic;startFill=1;" edge="1" parent="1">
          <mxGeometry width="50" height="50" relative="1" as="geometry">
            <mxPoint x="567" y="629" as="sourcePoint" />
            <mxPoint x="619.9989999999998" y="629.0849999999998" as="targetPoint" />
          </mxGeometry>
        </mxCell>
        <mxCell id="aRYz8n5IBiAh0wZ27M9G-35" value="Final Phase" style="whiteSpace=wrap;align=center;verticalAlign=middle;fontStyle=1;strokeWidth=3;fillColor=#ffe6cc;strokeColor=#d79b00;shadow=0;sketch=0;rounded=1;" vertex="1" parent="1">
          <mxGeometry x="464.5" y="613" width="101" height="33" as="geometry" />
        </mxCell>
        <mxCell id="aRYz8n5IBiAh0wZ27M9G-36" value="" style="endArrow=none;html=1;" edge="1" parent="1">
          <mxGeometry width="50" height="50" relative="1" as="geometry">
            <mxPoint x="208" y="689" as="sourcePoint" />
            <mxPoint x="670" y="689" as="targetPoint" />
          </mxGeometry>
        </mxCell>
        <mxCell id="aRYz8n5IBiAh0wZ27M9G-37" value="" style="endArrow=classic;html=1;" edge="1" parent="1">
          <mxGeometry width="50" height="50" relative="1" as="geometry">
            <mxPoint x="208" y="688" as="sourcePoint" />
            <mxPoint x="208" y="754" as="targetPoint" />
          </mxGeometry>
        </mxCell>
        <mxCell id="aRYz8n5IBiAh0wZ27M9G-38" value="Testing Modules" style="whiteSpace=wrap;align=center;verticalAlign=middle;fontStyle=1;strokeWidth=3;fillColor=#ffe6cc;strokeColor=#d79b00;shadow=0;sketch=0;rounded=1;" vertex="1" parent="1">
          <mxGeometry x="157" y="756" width="101" height="33" as="geometry" />
        </mxCell>
        <mxCell id="aRYz8n5IBiAh0wZ27M9G-39" value="Approved" style="ellipse;whiteSpace=wrap;html=1;align=center;fontStyle=1;fillColor=#d5e8d4;strokeColor=#82b366;dashed=1;" vertex="1" parent="1">
          <mxGeometry x="569" y="555" width="100" height="40" as="geometry" />
        </mxCell>
        <mxCell id="aRYz8n5IBiAh0wZ27M9G-40" value="" style="endArrow=classic;html=1;" edge="1" parent="1">
          <mxGeometry width="50" height="50" relative="1" as="geometry">
            <mxPoint x="515.1599999999999" y="646.0000000000002" as="sourcePoint" />
            <mxPoint x="515" y="689" as="targetPoint" />
          </mxGeometry>
        </mxCell>
        <mxCell id="aRYz8n5IBiAh0wZ27M9G-41" value="" style="endArrow=classic;html=1;" edge="1" parent="1">
          <mxGeometry width="50" height="50" relative="1" as="geometry">
            <mxPoint x="375.1700000000001" y="688" as="sourcePoint" />
            <mxPoint x="375.1700000000001" y="754" as="targetPoint" />
          </mxGeometry>
        </mxCell>
        <mxCell id="aRYz8n5IBiAh0wZ27M9G-42" value="Evaluation &#xa;Front-end" style="whiteSpace=wrap;align=center;verticalAlign=middle;fontStyle=1;strokeWidth=3;fillColor=#ffe6cc;strokeColor=#d79b00;shadow=0;sketch=0;rounded=1;" vertex="1" parent="1">
          <mxGeometry x="324" y="756" width="110" height="33" as="geometry" />
        </mxCell>
        <mxCell id="aRYz8n5IBiAh0wZ27M9G-43" value="" style="endArrow=classic;html=1;" edge="1" parent="1">
          <mxGeometry width="50" height="50" relative="1" as="geometry">
            <mxPoint x="514.8800000000001" y="688" as="sourcePoint" />
            <mxPoint x="514.8800000000001" y="754" as="targetPoint" />
          </mxGeometry>
        </mxCell>
        <mxCell id="aRYz8n5IBiAh0wZ27M9G-44" value="Github Maintenance" style="whiteSpace=wrap;align=center;verticalAlign=middle;fontStyle=1;strokeWidth=3;fillColor=#ffe6cc;strokeColor=#d79b00;shadow=0;sketch=0;rounded=1;" vertex="1" parent="1">
          <mxGeometry x="464" y="756" width="101" height="33" as="geometry" />
        </mxCell>
        <mxCell id="aRYz8n5IBiAh0wZ27M9G-45" value="" style="endArrow=classic;html=1;" edge="1" parent="1">
          <mxGeometry width="50" height="50" relative="1" as="geometry">
            <mxPoint x="669.9000000000001" y="688" as="sourcePoint" />
            <mxPoint x="669.9000000000001" y="754" as="targetPoint" />
          </mxGeometry>
        </mxCell>
        <mxCell id="aRYz8n5IBiAh0wZ27M9G-46" value="Final Release" style="whiteSpace=wrap;align=center;verticalAlign=middle;fontStyle=1;strokeWidth=3;fillColor=#ffe6cc;strokeColor=#d79b00;shadow=0;sketch=0;rounded=1;" vertex="1" parent="1">
          <mxGeometry x="619" y="756" width="101" height="33" as="geometry" />
        </mxCell>
        <mxCell id="aRYz8n5IBiAh0wZ27M9G-47" value="&lt;b&gt;&lt;font style=&quot;font-size: 14px&quot; color=&quot;#ff6666&quot;&gt;**&amp;nbsp; MODULES ARE PREPARING BY INDIVIDUAL&amp;nbsp; STEPS , ONCE ALL THE MODULES APPROVED BY AUTHORITIES INTEGRATION WILL BE STARTED&lt;/font&gt;&lt;/b&gt;" style="rounded=1;arcSize=10;whiteSpace=wrap;html=1;align=center;dashed=1;" vertex="1" parent="1">
          <mxGeometry x="74" y="852" width="746" height="40" as="geometry" />
        </mxCell>
        <mxCell id="aRYz8n5IBiAh0wZ27M9G-48" value="WATER-FLOW DIAGRAM OF TESSOLVE-DWS" style="whiteSpace=wrap;html=1;align=center;dashed=1;fillColor=#e1d5e7;strokeColor=none;fontSize=14;fontStyle=1" vertex="1" parent="1">
          <mxGeometry width="359" height="28" as="geometry" />
        </mxCell>
      </root>
    </mxGraphModel>
  </diagram>
</mxfile>
